<?xml version="1.0" encoding="utf-8"?>
<!-- Generator: Adobe Illustrator 23.1.0, SVG Export Plug-In . SVG Version: 6.00 Build 0)  -->
<svg version="1.1" id="Warstwa_1" xmlns="http://www.w3.org/2000/svg" xmlns:xlink="http://www.w3.org/1999/xlink" x="0px" y="0px"
	 viewBox="0 0 397.3 127.2" style="enable-background:new 0 0 397.3 127.2;" xml:space="preserve">
<style type="text/css">
	.st0{clip-path:url(#SVGID_2_);}
	.st1{opacity:0.5;}
	.st2{fill:#9DACC6;}
	.st3{fill:#3D5B8F;}
	.st4{fill:none;}
	.st5{opacity:0.8;}
	.st6{fill:#E6EAF1;}
	.st7{opacity:0.42;}
	.st8{fill:#F8F8EA;}
	.st9{fill:#FBFBF9;}
	.st10{opacity:0.33;}
	.st11{fill:#EFB661;}
	.st12{fill:#4968A2;}
	.st13{fill:#5A73A0;}
	.st14{opacity:0.46;}
	.st15{opacity:0.54;}
	.st16{enable-background:new    ;}
</style>
<g>
	<g>
		<defs>
			<rect id="SVGID_1_" x="-3.8" y="1.8" width="373.7" height="119.6"/>
		</defs>
		<clipPath id="SVGID_2_">
			<use xlink:href="#SVGID_1_"  style="overflow:visible;"/>
		</clipPath>
		<g class="st0">
			<g class="st1">
				<path class="st2" d="M28.1,76.9L43.2,92l62.1-62.1L90.2,14.8L28.1,76.9z"/>
			</g>
			<g class="st1">
				<path class="st3" d="M10.2,94.6l15.1,15.1l38.4-38.4l-15-15.1L10.2,94.6z"/>
			</g>
			<g class="st1">
				<path class="st4" d="M12.3,107.9h54.1V53.8H12.3V107.9z"/>
			</g>
			<g class="st5">
				<path class="st3" d="M40.7,91.6l62.1-62.1L87.8,14.3L25.7,76.6L40.7,91.6z"/>
			</g>
			<path class="st6" d="M31.3,101.3c-0.7,0.7-0.5,0.4-0.7,0.7c-0.3,0.3,0,0-0.9,1.1c13.8,8.9,31.8,10.5,47.7,3.1
				c24.6-11.7,35.1-41,23.4-65.6C89,15.7,59.6,5.2,34.9,16.9c-24.6,11.6-35,41-23.4,65.6c0.9,2.1,1.8,3.5,3.1,5.4
				c0-0.2,1.7-1.5,1.6-1.7c3.6-1.6,3.4-1.3,6.6,3.9c0.9,1.5,2.6,2.5,4,3.7C28.5,95.6,31.3,99.1,31.3,101.3z"/>
			<g class="st7">
				<path class="st4" d="M9,108.3h94.2V14H9V108.3z"/>
			</g>
			<path class="st3" d="M98.7,41c11.2,23.5,1.2,51.6-22.4,62.8S24.7,105,13.5,81.4C2.3,57.8,12.4,29.7,35.9,18.7
				C59.4,7.5,87.5,17.5,98.7,41z"/>
			<path class="st8" d="M82.8,48.5c7,14.8,0.7,32.5-14.1,39.5c-14.8,7-32.5,0.7-39.5-14.1c-7-14.8-0.7-32.5,14.1-39.5
				C58,27.4,75.8,33.7,82.8,48.5z"/>
			<path class="st9" d="M84.2,48.1c7.4,15.5,0.7,34.1-14.8,41.5C53.9,96.9,35.4,90.3,28,74.8s-0.7-34.1,14.8-41.5
				C58.3,25.8,76.8,32.5,84.2,48.1z"/>
			<g class="st5">
				<path class="st4" d="M9.8,107.6H64V53.4H9.8V107.6z"/>
			</g>
			<g class="st10">
				<path class="st4" d="M33,84.5h46.2V38.3H33V84.5z"/>
			</g>
			<path class="st11" d="M76.9,51.5c5.5,11.5,0.5,25.3-11,30.8c-11.5,5.5-25.3,0.5-30.8-11s-0.5-25.3,11-30.8
				C57.7,35.1,71.6,40,76.9,51.5z"/>
			<path class="st4" d="M39.3,78.2H73V44.5H39.3V78.2z"/>
			<path class="st12" d="M67.5,55.8c3.1,6.3,0.3,13.9-6,17s-13.9,0.3-17-6s-0.3-13.9,6-17C57,46.7,64.5,49.5,67.5,55.8z"/>
			<g class="st5">
				<path class="st13" d="M28,74.5L10.2,92.2l15.1,15.1l38.4-38.4l-15-15.1"/>
			</g>
			<g class="st14">
				<path class="st4" d="M44.2,73.3h23.9V49.4H44.2V73.3z"/>
			</g>
			<g class="st15">
				<path class="st4" d="M3.2,109c-0.5-0.7-0.9-1.4-1.5-2.1"/>
			</g>
			<path class="st3" d="M65.4,56.5c2.5,5.3,0.2,11.7-5.1,14.1c-5.3,2.5-11.7,0.2-14.1-5.1c-2.5-5.3-0.2-11.7,5.1-14.1
				C56.6,49,62.9,51.3,65.4,56.5z"/>
		</g>
	</g>
</g>
<g class="st16">
	<path class="st11" d="M121.1,81.7v-36h15.3c1.6,0,3.1,0.3,4.4,1c1.3,0.7,2.5,1.6,3.4,2.7c1,1.1,1.7,2.3,2.3,3.7
		c0.5,1.4,0.8,2.8,0.8,4.3c0,1.2-0.2,2.4-0.5,3.5c-0.3,1.1-0.8,2.1-1.4,3.1c-0.6,0.9-1.3,1.8-2.2,2.5c-0.9,0.7-1.8,1.2-2.8,1.5
		l8.3,13.7h-6.3l-7.6-12.5h-8.1v12.5H121.1z M126.6,64.2h9.7c0.8,0,1.5-0.2,2.2-0.5c0.6-0.4,1.2-0.8,1.7-1.5
		c0.5-0.6,0.8-1.3,1.1-2.2c0.3-0.8,0.4-1.7,0.4-2.6c0-0.9-0.2-1.8-0.5-2.6c-0.3-0.8-0.7-1.5-1.2-2.1c-0.5-0.6-1.1-1.1-1.8-1.4
		c-0.7-0.4-1.4-0.5-2.1-0.5h-9.4V64.2z"/>
	<path class="st11" d="M179,76.7v5h-24.2v-36h23.7v5h-18.2V61h15.7v4.7h-15.7v11H179z M168.5,42l-3.6-1.1l2.8-5.6h5.2L168.5,42z"/>
	<path class="st11" d="M205.9,54.2c-0.3-0.4-0.8-0.8-1.4-1.2c-0.6-0.4-1.4-0.8-2.2-1.2c-0.8-0.4-1.8-0.7-2.8-0.9
		c-1-0.2-2-0.4-3.1-0.4c-2.3,0-4.1,0.4-5.2,1.3c-1.1,0.9-1.7,2.1-1.7,3.6c0,0.9,0.2,1.6,0.5,2.2c0.3,0.6,0.9,1,1.6,1.5
		c0.7,0.4,1.6,0.8,2.7,1.1c1.1,0.3,2.4,0.7,3.8,1c1.8,0.4,3.4,0.9,4.8,1.5c1.4,0.5,2.7,1.2,3.6,2c1,0.8,1.8,1.7,2.3,2.9
		c0.5,1.1,0.8,2.5,0.8,4.1c0,1.8-0.3,3.4-1,4.7c-0.7,1.3-1.6,2.4-2.8,3.2c-1.2,0.8-2.5,1.4-4.1,1.8c-1.6,0.4-3.2,0.6-5,0.6
		c-2.7,0-5.3-0.4-7.8-1.2c-2.5-0.8-4.8-2-6.8-3.6l2.5-4.9c0.4,0.4,1,0.9,1.9,1.5c0.8,0.5,1.8,1,2.8,1.5c1.1,0.5,2.2,0.8,3.5,1.2
		c1.3,0.3,2.6,0.5,3.9,0.5c2.2,0,3.9-0.4,5.1-1.2c1.2-0.8,1.8-1.9,1.8-3.4c0-0.9-0.2-1.7-0.7-2.3c-0.4-0.6-1.1-1.1-1.9-1.6
		c-0.8-0.5-1.8-0.9-3-1.2c-1.2-0.4-2.5-0.8-4.1-1.2c-1.8-0.5-3.3-1-4.6-1.5c-1.3-0.5-2.4-1.2-3.2-1.9c-0.9-0.7-1.5-1.6-2-2.6
		c-0.4-1-0.7-2.2-0.7-3.6c0-1.8,0.3-3.3,1-4.7c0.7-1.4,1.6-2.5,2.7-3.4c1.1-0.9,2.5-1.6,4-2.1c1.6-0.5,3.2-0.7,5.1-0.7
		c2.4,0,4.6,0.4,6.6,1.2c2,0.8,3.8,1.7,5.3,2.9L205.9,54.2z"/>
	<path class="st11" d="M231,81.9c-2.5,0-4.8-0.5-6.9-1.5c-2.1-1-3.8-2.4-5.3-4.1c-1.5-1.7-2.6-3.7-3.4-5.8c-0.8-2.2-1.2-4.4-1.2-6.7
		c0-2.4,0.4-4.7,1.3-6.9c0.9-2.2,2-4.1,3.5-5.8c1.5-1.7,3.3-3,5.4-4c2.1-1,4.3-1.5,6.8-1.5c2.5,0,4.8,0.5,6.9,1.6
		c2.1,1.1,3.8,2.5,5.3,4.2c1.5,1.7,2.6,3.7,3.4,5.8c0.8,2.2,1.2,4.4,1.2,6.7c0,2.4-0.4,4.7-1.3,6.9c-0.8,2.2-2,4.1-3.5,5.8
		s-3.3,3-5.4,4C235.6,81.4,233.4,81.9,231,81.9z M219.7,63.7c0,1.7,0.3,3.3,0.8,4.9c0.5,1.6,1.3,3,2.3,4.2c1,1.2,2.2,2.2,3.5,2.9
		s2.9,1.1,4.7,1.1c1.8,0,3.4-0.4,4.7-1.1c1.4-0.8,2.5-1.8,3.5-3s1.7-2.6,2.2-4.2c0.5-1.6,0.7-3.1,0.7-4.8c0-1.7-0.3-3.4-0.8-4.9
		c-0.5-1.6-1.3-3-2.3-4.2c-1-1.2-2.2-2.2-3.5-2.9c-1.4-0.7-2.9-1.1-4.6-1.1c-1.8,0-3.4,0.4-4.8,1.1c-1.4,0.8-2.6,1.7-3.5,3
		c-1,1.2-1.7,2.6-2.2,4.2C220,60.5,219.7,62.1,219.7,63.7z"/>
	<path class="st11" d="M260.2,56.4v25.3h-5.6v-36h4.4l20.1,25.9V45.8h5.6v35.9h-4.6L260.2,56.4z"/>
	<path class="st11" d="M299.2,56.4v25.3h-5.6v-36h4.4l20.1,25.9V45.8h5.6v35.9h-4.6L299.2,56.4z"/>
	<path class="st11" d="M356.8,76.7v5h-24.2v-36h23.7v5h-18.2V61H354v4.7h-15.7v11H356.8z"/>
	<path class="st11" d="M361.1,77.3l21.4-26.6h-20.9v-5H389v4.4l-20.9,26.6h20.9v5h-27.9V77.3z"/>
</g>
</svg>
